<svg width="22" height="22" viewBox="0 0 22 22" fill="none" xmlns="http://www.w3.org/2000/svg">
<g clip-path="url(#clip0_2882_9174)">
<path d="M12.8335 2.75C14.3523 2.75 15.5835 3.98122 15.5835 5.5H18.3335C19.346 5.5 20.1668 6.32081 20.1668 7.33333V17.4167C20.1668 18.4292 19.346 19.25 18.3335 19.25H3.66683C2.65431 19.25 1.8335 18.4292 1.8335 17.4167V7.33333C1.8335 6.32081 2.65431 5.5 3.66683 5.5H6.41683C6.41683 3.98122 7.64805 2.75 9.16683 2.75H12.8335ZM17.4168 9.16667H4.5835C4.07724 9.16667 3.66683 9.57706 3.66683 10.0833C3.66683 10.5534 4.0207 10.9409 4.47659 10.9938L4.5835 11H10.0835V11.9167C10.0835 12.4229 10.4939 12.8333 11.0002 12.8333C11.4703 12.8333 11.8577 12.4795 11.9107 12.0236L11.9168 11.9167V11H17.4168C17.9231 11 18.3335 10.5896 18.3335 10.0833C18.3335 9.61322 17.9796 9.22578 17.5237 9.17283L17.4168 9.16667ZM12.8335 4.58333H9.16683C8.69673 4.58333 8.30928 4.93721 8.25633 5.3931L8.25016 5.5H13.7502C13.7502 5.0299 13.3963 4.64245 12.9404 4.5895L12.8335 4.58333Z" fill="white"/>
</g>
<defs>
<clipPath id="clip0_2882_9174">
<rect width="22" height="22" fill="white"/>
</clipPath>
</defs>
</svg>
