<svg width="20" height="20" viewBox="0 0 20 20" fill="none" xmlns="http://www.w3.org/2000/svg">
<path d="M11.6667 14.166C12.1269 14.166 12.5 14.5391 12.5 14.9993C12.5 15.4267 12.1783 15.7789 11.7639 15.8271L11.6667 15.8327H8.33333C7.8731 15.8327 7.5 15.4596 7.5 14.9993C7.5 14.572 7.8217 14.2198 8.23615 14.1716L8.33333 14.166H11.6667ZM14.1667 9.16602C14.6269 9.16602 15 9.5391 15 9.99935C15 10.4596 14.6269 10.8327 14.1667 10.8327H5.83333C5.3731 10.8327 5 10.4596 5 9.99935C5 9.5391 5.3731 9.16602 5.83333 9.16602H14.1667ZM16.6667 4.16602C17.1269 4.16602 17.5 4.53912 17.5 4.99935C17.5 5.45958 17.1269 5.83268 16.6667 5.83268H3.33333C2.8731 5.83268 2.5 5.45958 2.5 4.99935C2.5 4.53912 2.8731 4.16602 3.33333 4.16602H16.6667Z" fill="black" fill-opacity="0.6"/>
</svg>
