<svg width="73" height="63" viewBox="0 0 73 63" fill="none" xmlns="http://www.w3.org/2000/svg">
<path fill-rule="evenodd" clip-rule="evenodd" d="M58.7732 7.36353L54.5219 0H18.174L0 31.4781L18.174 62.9562H25.3967L29.0434 41.6035L9.53167 18.0945L39.647 23.2376L58.7732 7.36353ZM61.6761 12.3915L58.0129 33.8412L65.8676 43.305L72.6958 31.4781L61.6761 12.3915ZM59.5326 54.2774L47.4093 52.207L34.4579 62.9562H54.5219L59.5326 54.2774Z" fill="#15103C"/>
<path fill-rule="evenodd" clip-rule="evenodd" d="M58.7732 7.36353L54.5219 0H18.174L0 31.4781L18.174 62.9562H25.3967L29.0434 41.6035L9.53167 18.0945L39.647 23.2376L58.7732 7.36353ZM61.6761 12.3915L58.0129 33.8412L65.8676 43.305L72.6958 31.4781L61.6761 12.3915ZM59.5326 54.2774L47.4093 52.207L34.4579 62.9562H54.5219L59.5326 54.2774Z" fill="url(#paint0_linear_1433_1106)"/>
<defs>
<linearGradient id="paint0_linear_1433_1106" x1="54.5229" y1="5.89427e-05" x2="18.1752" y2="62.9564" gradientUnits="userSpaceOnUse">
<stop stop-color="#00D8F3"/>
<stop offset="1" stop-color="#2495FE"/>
</linearGradient>
</defs>
</svg>
