<svg width="322" height="77" viewBox="0 0 322 77" fill="none" xmlns="http://www.w3.org/2000/svg">
<path fill-rule="evenodd" clip-rule="evenodd" d="M58.7732 14.3855L54.5219 7.02197H18.174L0 38.5001L18.174 69.9782H25.3967L29.0434 48.6255L9.53167 25.1165L39.647 30.2596L58.7732 14.3855ZM61.6761 19.4134L58.0129 40.8631L65.8676 50.327L72.6958 38.5001L61.6761 19.4134ZM59.5326 61.2994L47.4093 59.229L34.4579 69.9782H54.5219L59.5326 61.2994Z" fill="#15103C"/>
<path fill-rule="evenodd" clip-rule="evenodd" d="M58.7732 14.3855L54.5219 7.02197H18.174L0 38.5001L18.174 69.9782H25.3967L29.0434 48.6255L9.53167 25.1165L39.647 30.2596L58.7732 14.3855ZM61.6761 19.4134L58.0129 40.8631L65.8676 50.327L72.6958 38.5001L61.6761 19.4134ZM59.5326 61.2994L47.4093 59.229L34.4579 69.9782H54.5219L59.5326 61.2994Z" fill="url(#paint0_linear_1433_1105)"/>
<path d="M101.019 36C98.9395 36 97.3478 35.4737 96.2438 34.421C95.1398 33.3684 94.5878 31.8665 94.5878 29.9152C94.5878 27.9897 95.1398 26.5006 96.2438 25.4479C97.3478 24.3953 98.9395 23.869 101.019 23.869H115.807V22.9447C115.807 21.3786 115.037 20.5955 113.497 20.5955H97.168V16.1667H114.96C117.297 16.1667 118.953 16.7059 119.928 17.7842C120.904 18.8368 121.392 20.3259 121.392 22.2515V36H101.019ZM102.02 31.5712H115.807V28.2978H102.02C101.533 28.2978 101.148 28.4518 100.865 28.7599C100.608 29.0423 100.48 29.4274 100.48 29.9152C100.48 30.403 100.608 30.801 100.865 31.1091C101.148 31.4172 101.533 31.5712 102.02 31.5712ZM130.148 36C128.068 36 126.476 35.4737 125.372 34.421C124.268 33.3684 123.716 31.8665 123.716 29.9152C123.716 27.9897 124.268 26.5006 125.372 25.4479C126.476 24.3953 128.068 23.869 130.148 23.869H144.936V22.9447C144.936 21.3786 144.166 20.5955 142.625 20.5955H126.297V16.1667H144.089C146.425 16.1667 148.081 16.7059 149.057 17.7842C150.032 18.8368 150.52 20.3259 150.52 22.2515V36H130.148ZM131.149 31.5712H144.936V28.2978H131.149C130.661 28.2978 130.276 28.4518 129.994 28.7599C129.737 29.0423 129.609 29.4274 129.609 29.9152C129.609 30.403 129.737 30.801 129.994 31.1091C130.276 31.4172 130.661 31.5712 131.149 31.5712ZM154 36V8.46449H159.584V36H154ZM169.362 36C167.102 36 165.446 35.4352 164.394 34.3055C163.367 33.1758 162.853 31.7124 162.853 29.9152V16.1667H168.438V29.2605C168.438 30.801 169.208 31.5712 170.748 31.5712H178.759C180.299 31.5712 181.069 30.801 181.069 29.2605V16.1667H186.653V29.9152C186.653 31.7124 186.127 33.1758 185.074 34.3055C184.047 35.4352 182.404 36 180.145 36H169.362ZM214.334 36H208.75V8.46449H214.334V36ZM213.371 36H200.085C196.645 36 193.962 35.1528 192.036 33.4583C190.111 31.7638 189.148 29.3119 189.148 26.1026C189.148 22.8677 190.111 20.403 192.036 18.7085C193.962 17.014 196.645 16.1667 200.085 16.1667H212.986V20.5955H200.085C198.416 20.5955 197.132 21.0577 196.234 21.9819C195.361 22.8805 194.925 24.2541 194.925 26.1026C194.925 27.9255 195.361 29.299 196.234 30.2233C197.132 31.1219 198.416 31.5712 200.085 31.5712H213.371V36ZM217.806 36V16.1667H232.979C235.213 16.1667 236.856 16.7316 237.908 17.8612C238.961 18.9652 239.487 20.4286 239.487 22.2515V26.3722H233.826V22.9447C233.826 21.4043 233.056 20.634 231.516 20.634H223.467V36H217.806ZM247.058 36C244.978 36 243.386 35.4737 242.282 34.421C241.178 33.3684 240.626 31.8665 240.626 29.9152C240.626 27.9897 241.178 26.5006 242.282 25.4479C243.386 24.3953 244.978 23.869 247.058 23.869H261.846V22.9447C261.846 21.3786 261.076 20.5955 259.535 20.5955H243.207V16.1667H260.999C263.335 16.1667 264.991 16.7059 265.967 17.7842C266.942 18.8368 267.43 20.3259 267.43 22.2515V36H247.058ZM248.059 31.5712H261.846V28.2978H248.059C247.571 28.2978 247.186 28.4518 246.904 28.7599C246.647 29.0423 246.519 29.4274 246.519 29.9152C246.519 30.403 246.647 30.801 246.904 31.1091C247.186 31.4172 247.571 31.5712 248.059 31.5712Z" fill="black"/>
<path d="M95.4683 69V53.7782H104.595V55.4133H97.3115V60.5567H103.912V62.1918H97.3115V69H95.4683ZM113.994 64.3324V57.5836H115.748V69H113.994V67.0675H113.875C113.607 67.6473 113.191 68.1403 112.626 68.5466C112.061 68.948 111.348 69.1487 110.486 69.1487C109.772 69.1487 109.138 68.9926 108.583 68.6804C108.028 68.3633 107.592 67.8876 107.275 67.2534C106.958 66.6142 106.799 65.809 106.799 64.8378V57.5836H108.553V64.7189C108.553 65.5513 108.786 66.2153 109.252 66.7108C109.723 67.2063 110.322 67.454 111.051 67.454C111.487 67.454 111.93 67.3425 112.381 67.1196C112.837 66.8966 113.218 66.5547 113.526 66.0939C113.838 65.6331 113.994 65.0459 113.994 64.3324ZM123.747 69.2378C122.647 69.2378 121.698 68.995 120.901 68.5095C120.108 68.0189 119.496 67.3351 119.065 66.4581C118.639 65.5761 118.425 64.5504 118.425 63.381C118.425 62.2116 118.639 61.181 119.065 60.2891C119.496 59.3922 120.095 58.6936 120.863 58.1931C121.636 57.6877 122.538 57.435 123.569 57.435C124.163 57.435 124.751 57.5341 125.33 57.7323C125.91 57.9305 126.438 58.2526 126.913 58.6985C127.389 59.1395 127.768 59.7242 128.051 60.4526C128.333 61.181 128.474 62.0778 128.474 63.1432V63.8864H119.674V62.3702H126.69C126.69 61.726 126.562 61.1513 126.304 60.6458C126.051 60.1404 125.69 59.7416 125.219 59.4492C124.753 59.1569 124.203 59.0107 123.569 59.0107C122.87 59.0107 122.266 59.1841 121.755 59.531C121.25 59.8729 120.861 60.3188 120.588 60.8688C120.316 61.4188 120.18 62.0085 120.18 62.6378V63.6486C120.18 64.5108 120.328 65.2416 120.626 65.8412C120.928 66.4358 121.346 66.8892 121.882 67.2013C122.417 67.5085 123.039 67.6621 123.747 67.6621C124.208 67.6621 124.624 67.5977 124.996 67.4689C125.372 67.3351 125.697 67.1369 125.969 66.8743C126.242 66.6067 126.453 66.2747 126.601 65.8783L128.296 66.354C128.117 66.9288 127.818 67.4342 127.397 67.8703C126.975 68.3013 126.455 68.6383 125.836 68.8811C125.216 69.1189 124.52 69.2378 123.747 69.2378ZM132.897 53.7782V69H131.143V53.7782H132.897ZM136.109 69V57.5836H137.863V69H136.109ZM137.001 55.6809C136.659 55.6809 136.364 55.5645 136.117 55.3316C135.874 55.0987 135.753 54.8187 135.753 54.4917C135.753 54.1647 135.874 53.8847 136.117 53.6518C136.364 53.419 136.659 53.3025 137.001 53.3025C137.343 53.3025 137.635 53.419 137.878 53.6518C138.126 53.8847 138.25 54.1647 138.25 54.4917C138.25 54.8187 138.126 55.0987 137.878 55.3316C137.635 55.5645 137.343 55.6809 137.001 55.6809ZM142.83 62.1323V69H141.076V57.5836H142.771V59.3674H142.919C143.187 58.7877 143.593 58.3219 144.138 57.9701C144.683 57.6134 145.387 57.435 146.249 57.435C147.022 57.435 147.698 57.5936 148.278 57.9107C148.858 58.2228 149.309 58.6985 149.631 59.3377C149.953 59.972 150.114 60.7747 150.114 61.7459V69H148.36V61.8648C148.36 60.9679 148.127 60.2693 147.661 59.7688C147.196 59.2634 146.556 59.0107 145.744 59.0107C145.184 59.0107 144.683 59.1321 144.242 59.3749C143.806 59.6177 143.462 59.972 143.209 60.4377C142.957 60.9035 142.83 61.4684 142.83 62.1323ZM157.927 73.519C157.08 73.519 156.352 73.41 155.742 73.1919C155.133 72.9789 154.625 72.6964 154.219 72.3446C153.817 71.9978 153.498 71.6262 153.26 71.2298L154.657 70.2487C154.816 70.4568 155.016 70.6946 155.259 70.9622C155.502 71.2347 155.834 71.4701 156.255 71.6683C156.681 71.8714 157.239 71.973 157.927 71.973C158.849 71.973 159.61 71.75 160.209 71.3041C160.809 70.8581 161.109 70.1595 161.109 69.2081V66.8892H160.96C160.831 67.0973 160.648 67.3549 160.41 67.6621C160.177 67.9644 159.84 68.2345 159.399 68.4723C158.963 68.7052 158.373 68.8216 157.63 68.8216C156.709 68.8216 155.881 68.6036 155.148 68.1676C154.419 67.7315 153.842 67.0973 153.416 66.2648C152.995 65.4324 152.784 64.4216 152.784 63.2324C152.784 62.063 152.99 61.0447 153.401 60.1776C153.812 59.3055 154.385 58.6316 155.118 58.1559C155.851 57.6753 156.699 57.435 157.66 57.435C158.403 57.435 158.993 57.5589 159.429 57.8066C159.87 58.0494 160.207 58.3269 160.44 58.6391C160.678 58.9463 160.861 59.199 160.99 59.3972H161.168V57.5836H162.863V69.327C162.863 70.3081 162.64 71.1059 162.194 71.7203C161.753 72.3397 161.158 72.7931 160.41 73.0805C159.667 73.3728 158.839 73.519 157.927 73.519ZM157.868 67.2459C158.572 67.2459 159.166 67.0849 159.652 66.7628C160.137 66.4407 160.507 65.9774 160.759 65.3729C161.012 64.7684 161.138 64.045 161.138 63.2026C161.138 62.3801 161.014 61.6542 160.767 61.0249C160.519 60.3956 160.152 59.9026 159.667 59.5458C159.181 59.1891 158.582 59.0107 157.868 59.0107C157.125 59.0107 156.505 59.199 156.01 59.5756C155.519 59.9521 155.15 60.4576 154.902 61.0918C154.66 61.726 154.538 62.4296 154.538 63.2026C154.538 63.9954 154.662 64.6966 154.91 65.306C155.163 65.9105 155.534 66.3862 156.025 66.7331C156.52 67.075 157.135 67.2459 157.868 67.2459ZM172.822 69H170.89L176.479 53.7782H178.382L183.971 69H182.039L177.49 56.1863H177.371L172.822 69ZM173.536 63.054H181.325V64.6891H173.536V63.054ZM186.104 73.2811V57.5836H187.799V59.3972H188.007C188.136 59.199 188.314 58.9463 188.542 58.6391C188.775 58.3269 189.107 58.0494 189.538 57.8066C189.974 57.5589 190.564 57.435 191.307 57.435C192.268 57.435 193.116 57.6753 193.849 58.1559C194.582 58.6366 195.155 59.3179 195.566 60.1999C195.977 61.0819 196.183 62.1224 196.183 63.3216C196.183 64.5306 195.977 65.5786 195.566 66.4655C195.155 67.3475 194.585 68.0313 193.856 68.5169C193.128 68.9975 192.288 69.2378 191.337 69.2378C190.603 69.2378 190.016 69.1164 189.575 68.8736C189.134 68.6259 188.795 68.3459 188.557 68.0338C188.319 67.7167 188.136 67.454 188.007 67.2459H187.858V73.2811H186.104ZM187.829 63.2918C187.829 64.154 187.955 64.9146 188.208 65.5736C188.46 66.2277 188.829 66.7405 189.315 67.1121C189.801 67.4788 190.395 67.6621 191.099 67.6621C191.832 67.6621 192.444 67.4689 192.935 67.0824C193.43 66.691 193.802 66.1657 194.05 65.5067C194.302 64.8427 194.429 64.1044 194.429 63.2918C194.429 62.4891 194.305 61.7657 194.057 61.1215C193.814 60.4724 193.445 59.9596 192.95 59.583C192.459 59.2015 191.842 59.0107 191.099 59.0107C190.385 59.0107 189.786 59.1915 189.3 59.5533C188.815 59.91 188.448 60.4105 188.2 61.0546C187.952 61.6938 187.829 62.4396 187.829 63.2918ZM198.858 73.2811V57.5836H200.553V59.3972H200.761C200.89 59.199 201.068 58.9463 201.296 58.6391C201.529 58.3269 201.861 58.0494 202.292 57.8066C202.728 57.5589 203.318 57.435 204.061 57.435C205.022 57.435 205.87 57.6753 206.603 58.1559C207.336 58.6366 207.909 59.3179 208.32 60.1999C208.731 61.0819 208.937 62.1224 208.937 63.3216C208.937 64.5306 208.731 65.5786 208.32 66.4655C207.909 67.3475 207.339 68.0313 206.611 68.5169C205.882 68.9975 205.042 69.2378 204.091 69.2378C203.358 69.2378 202.77 69.1164 202.329 68.8736C201.888 68.6259 201.549 68.3459 201.311 68.0338C201.073 67.7167 200.89 67.454 200.761 67.2459H200.612V73.2811H198.858ZM200.583 63.2918C200.583 64.154 200.709 64.9146 200.962 65.5736C201.214 66.2277 201.584 66.7405 202.069 67.1121C202.555 67.4788 203.149 67.6621 203.853 67.6621C204.586 67.6621 205.198 67.4689 205.689 67.0824C206.184 66.691 206.556 66.1657 206.804 65.5067C207.056 64.8427 207.183 64.1044 207.183 63.2918C207.183 62.4891 207.059 61.7657 206.811 61.1215C206.568 60.4724 206.199 59.9596 205.704 59.583C205.213 59.2015 204.596 59.0107 203.853 59.0107C203.14 59.0107 202.54 59.1915 202.054 59.5533C201.569 59.91 201.202 60.4105 200.954 61.0546C200.707 61.6938 200.583 62.4396 200.583 63.2918ZM217.737 69V53.7782H226.924V55.4133H219.58V60.5567H226.448V62.1918H219.58V67.3648H227.043V69H217.737ZM231.316 57.5836L234.051 62.2513L236.787 57.5836H238.808L235.122 63.2918L238.808 69H236.787L234.051 64.5702L231.316 69H229.295L232.922 63.2918L229.295 57.5836H231.316ZM245.479 69.2378C244.409 69.2378 243.487 68.9851 242.714 68.4797C241.941 67.9743 241.346 67.2781 240.93 66.3912C240.514 65.5042 240.306 64.4909 240.306 63.3513C240.306 62.1918 240.519 61.1686 240.945 60.2816C241.376 59.3897 241.976 58.6936 242.744 58.1931C243.517 57.6877 244.419 57.435 245.449 57.435C246.252 57.435 246.975 57.5836 247.619 57.8809C248.264 58.1782 248.791 58.5945 249.203 59.1296C249.614 59.6647 249.869 60.2891 249.968 61.0026H248.214C248.08 60.4823 247.783 60.0215 247.322 59.6202C246.866 59.2138 246.252 59.0107 245.479 59.0107C244.795 59.0107 244.196 59.1891 243.68 59.5458C243.17 59.8976 242.771 60.3956 242.484 61.0398C242.201 61.679 242.06 62.4296 242.06 63.2918C242.06 64.1738 242.199 64.9418 242.476 65.5959C242.759 66.25 243.155 66.7579 243.665 67.1196C244.181 67.4813 244.785 67.6621 245.479 67.6621C245.935 67.6621 246.349 67.5829 246.72 67.4243C247.092 67.2657 247.406 67.0378 247.664 66.7405C247.922 66.4432 248.105 66.0865 248.214 65.6702H249.968C249.869 66.3441 249.624 66.9511 249.232 67.4912C248.846 68.0263 248.333 68.4525 247.694 68.7696C247.06 69.0818 246.321 69.2378 245.479 69.2378ZM257.319 69.2378C256.219 69.2378 255.27 68.995 254.472 68.5095C253.679 68.0189 253.068 67.3351 252.636 66.4581C252.21 65.5761 251.997 64.5504 251.997 63.381C251.997 62.2116 252.21 61.181 252.636 60.2891C253.068 59.3922 253.667 58.6936 254.435 58.1931C255.208 57.6877 256.11 57.435 257.141 57.435C257.735 57.435 258.322 57.5341 258.902 57.7323C259.482 57.9305 260.009 58.2526 260.485 58.6985C260.961 59.1395 261.34 59.7242 261.622 60.4526C261.905 61.181 262.046 62.0778 262.046 63.1432V63.8864H253.246V62.3702H260.262C260.262 61.726 260.133 61.1513 259.876 60.6458C259.623 60.1404 259.261 59.7416 258.791 59.4492C258.325 59.1569 257.775 59.0107 257.141 59.0107C256.442 59.0107 255.837 59.1841 255.327 59.531C254.822 59.8729 254.433 60.3188 254.16 60.8688C253.888 61.4188 253.751 62.0085 253.751 62.6378V63.6486C253.751 64.5108 253.9 65.2416 254.197 65.8412C254.5 66.4358 254.918 66.8892 255.453 67.2013C255.988 67.5085 256.61 67.6621 257.319 67.6621C257.78 67.6621 258.196 67.5977 258.568 67.4689C258.944 67.3351 259.269 67.1369 259.541 66.8743C259.814 66.6067 260.024 66.2747 260.173 65.8783L261.868 66.354C261.689 66.9288 261.389 67.4342 260.968 67.8703C260.547 68.3013 260.027 68.6383 259.407 68.8811C258.788 69.1189 258.092 69.2378 257.319 69.2378ZM266.468 53.7782V69H264.714V53.7782H266.468ZM271.435 53.7782V69H269.681V53.7782H271.435ZM279.434 69.2378C278.334 69.2378 277.385 68.995 276.588 68.5095C275.795 68.0189 275.183 67.3351 274.752 66.4581C274.326 65.5761 274.113 64.5504 274.113 63.381C274.113 62.2116 274.326 61.181 274.752 60.2891C275.183 59.3922 275.783 58.6936 276.551 58.1931C277.324 57.6877 278.225 57.435 279.256 57.435C279.851 57.435 280.438 57.5341 281.018 57.7323C281.597 57.9305 282.125 58.2526 282.601 58.6985C283.076 59.1395 283.455 59.7242 283.738 60.4526C284.02 61.181 284.161 62.0778 284.161 63.1432V63.8864H275.361V62.3702H282.378C282.378 61.726 282.249 61.1513 281.991 60.6458C281.738 60.1404 281.377 59.7416 280.906 59.4492C280.44 59.1569 279.89 59.0107 279.256 59.0107C278.557 59.0107 277.953 59.1841 277.442 59.531C276.937 59.8729 276.548 60.3188 276.276 60.8688C276.003 61.4188 275.867 62.0085 275.867 62.6378V63.6486C275.867 64.5108 276.015 65.2416 276.313 65.8412C276.615 66.4358 277.034 66.8892 277.569 67.2013C278.104 67.5085 278.726 67.6621 279.434 67.6621C279.895 67.6621 280.311 67.5977 280.683 67.4689C281.06 67.3351 281.384 67.1369 281.657 66.8743C281.929 66.6067 282.14 66.2747 282.288 65.8783L283.983 66.354C283.805 66.9288 283.505 67.4342 283.084 67.8703C282.663 68.3013 282.142 68.6383 281.523 68.8811C280.904 69.1189 280.207 69.2378 279.434 69.2378ZM288.584 62.1323V69H286.83V57.5836H288.524V59.3674H288.673C288.941 58.7877 289.347 58.3219 289.892 57.9701C290.437 57.6134 291.141 57.435 292.003 57.435C292.776 57.435 293.452 57.5936 294.032 57.9107C294.612 58.2228 295.063 58.6985 295.385 59.3377C295.707 59.972 295.868 60.7747 295.868 61.7459V69H294.114V61.8648C294.114 60.9679 293.881 60.2693 293.415 59.7688C292.949 59.2634 292.31 59.0107 291.497 59.0107C290.937 59.0107 290.437 59.1321 289.996 59.3749C289.56 59.6177 289.216 59.972 288.963 60.4377C288.71 60.9035 288.584 61.4684 288.584 62.1323ZM303.711 69.2378C302.641 69.2378 301.719 68.9851 300.946 68.4797C300.173 67.9743 299.578 67.2781 299.162 66.3912C298.746 65.5042 298.538 64.4909 298.538 63.3513C298.538 62.1918 298.751 61.1686 299.177 60.2816C299.608 59.3897 300.208 58.6936 300.976 58.1931C301.749 57.6877 302.65 57.435 303.681 57.435C304.484 57.435 305.207 57.5836 305.851 57.8809C306.496 58.1782 307.023 58.5945 307.435 59.1296C307.846 59.6647 308.101 60.2891 308.2 61.0026H306.446C306.312 60.4823 306.015 60.0215 305.554 59.6202C305.098 59.2138 304.484 59.0107 303.711 59.0107C303.027 59.0107 302.428 59.1891 301.912 59.5458C301.402 59.8976 301.003 60.3956 300.716 61.0398C300.433 61.679 300.292 62.4296 300.292 63.2918C300.292 64.1738 300.431 64.9418 300.708 65.5959C300.991 66.25 301.387 66.7579 301.897 67.1196C302.413 67.4813 303.017 67.6621 303.711 67.6621C304.167 67.6621 304.58 67.5829 304.952 67.4243C305.324 67.2657 305.638 67.0378 305.896 66.7405C306.154 66.4432 306.337 66.0865 306.446 65.6702H308.2C308.101 66.3441 307.856 66.9511 307.464 67.4912C307.078 68.0263 306.565 68.4525 305.926 68.7696C305.292 69.0818 304.553 69.2378 303.711 69.2378ZM315.551 69.2378C314.451 69.2378 313.502 68.995 312.704 68.5095C311.911 68.0189 311.299 67.3351 310.868 66.4581C310.442 65.5761 310.229 64.5504 310.229 63.381C310.229 62.2116 310.442 61.181 310.868 60.2891C311.299 59.3922 311.899 58.6936 312.667 58.1931C313.44 57.6877 314.342 57.435 315.372 57.435C315.967 57.435 316.554 57.5341 317.134 57.7323C317.714 57.9305 318.241 58.2526 318.717 58.6985C319.193 59.1395 319.572 59.7242 319.854 60.4526C320.137 61.181 320.278 62.0778 320.278 63.1432V63.8864H311.478V62.3702H318.494C318.494 61.726 318.365 61.1513 318.108 60.6458C317.855 60.1404 317.493 59.7416 317.023 59.4492C316.557 59.1569 316.007 59.0107 315.372 59.0107C314.674 59.0107 314.069 59.1841 313.559 59.531C313.054 59.8729 312.665 60.3188 312.392 60.8688C312.12 61.4188 311.983 62.0085 311.983 62.6378V63.6486C311.983 64.5108 312.132 65.2416 312.429 65.8412C312.731 66.4358 313.15 66.8892 313.685 67.2013C314.22 67.5085 314.842 67.6621 315.551 67.6621C316.012 67.6621 316.428 67.5977 316.8 67.4689C317.176 67.3351 317.501 67.1369 317.773 66.8743C318.046 66.6067 318.256 66.2747 318.405 65.8783L320.1 66.354C319.921 66.9288 319.621 67.4342 319.2 67.8703C318.779 68.3013 318.259 68.6383 317.639 68.8811C317.02 69.1189 316.324 69.2378 315.551 69.2378Z" fill="black" fill-opacity="0.6"/>
<defs>
<linearGradient id="paint0_linear_1433_1105" x1="54.5229" y1="7.02203" x2="18.1752" y2="69.9784" gradientUnits="userSpaceOnUse">
<stop stop-color="#00D8F3"/>
<stop offset="1" stop-color="#2495FE"/>
</linearGradient>
</defs>
</svg>
